<svg width="16" height="16" viewBox="0 0 16 16" fill="none" xmlns="http://www.w3.org/2000/svg">
<path d="M8.00004 6.12533C6.96785 6.12533 6.12551 6.96767 6.12551 7.99986C6.12551 9.03205 6.96785 9.87439 8.00004 9.87439C9.03223 9.87439 9.87457 9.03205 9.87457 7.99986C9.87457 6.96767 9.03223 6.12533 8.00004 6.12533ZM13.6222 7.99986C13.6222 7.22361 13.6293 6.45439 13.5857 5.67955C13.5421 4.77955 13.3368 3.9808 12.6786 3.32267C12.0191 2.66314 11.2218 2.45924 10.3218 2.41564C9.54551 2.37205 8.77629 2.37908 8.00145 2.37908C7.2252 2.37908 6.45598 2.37205 5.68114 2.41564C4.78114 2.45924 3.98239 2.66455 3.32426 3.32267C2.66473 3.98221 2.46082 4.77955 2.41723 5.67955C2.37364 6.4558 2.38067 7.22502 2.38067 7.99986C2.38067 8.77471 2.37364 9.54533 2.41723 10.3202C2.46082 11.2202 2.66614 12.0189 3.32426 12.677C3.98379 13.3366 4.78114 13.5405 5.68114 13.5841C6.45739 13.6277 7.2266 13.6206 8.00145 13.6206C8.7777 13.6206 9.54692 13.6277 10.3218 13.5841C11.2218 13.5405 12.0205 13.3352 12.6786 12.677C13.3382 12.0175 13.5421 11.2202 13.5857 10.3202C13.6307 9.54533 13.6222 8.77611 13.6222 7.99986ZM8.00004 10.8841C6.40395 10.8841 5.11582 9.59596 5.11582 7.99986C5.11582 6.40377 6.40395 5.11564 8.00004 5.11564C9.59614 5.11564 10.8843 6.40377 10.8843 7.99986C10.8843 9.59596 9.59614 10.8841 8.00004 10.8841ZM11.0024 5.67111C10.6297 5.67111 10.3288 5.37017 10.3288 4.99752C10.3288 4.62486 10.6297 4.32392 11.0024 4.32392C11.375 4.32392 11.676 4.62486 11.676 4.99752C11.6761 5.08601 11.6587 5.17365 11.6249 5.25542C11.5911 5.3372 11.5415 5.4115 11.4789 5.47407C11.4164 5.53664 11.3421 5.58625 11.2603 5.62006C11.1785 5.65388 11.0909 5.67122 11.0024 5.67111Z" fill="black"/>
</svg>
