<svg width="106" height="71" viewBox="0 0 106 71" fill="none" xmlns="http://www.w3.org/2000/svg">
<path d="M25.332 37H21.0547V20.5938H7.94922V37H3.67188V7.95703H7.94922V18.6797H21.0547V7.95703H25.332V37ZM54.4922 37H51.2109L35.1172 14.4414V37H33.125V11.6484L30.5273 7.95703H35.7617L52.4805 31.4336V7.95703H54.4922V37ZM83.4766 37H80.1953L64.1016 14.4414V37H62.1094V11.6484L59.5117 7.95703H64.7461L81.4648 31.4336V7.95703H83.4766V37Z" fill="black"/>
<path d="M8.404 51.6H2.068V67H4.928V62.556H8.404C12.452 62.556 14.96 60.466 14.96 57.078C14.96 53.668 12.452 51.6 8.404 51.6ZM8.272 60.136H4.928V54.02H8.272C10.78 54.02 12.078 55.142 12.078 57.078C12.078 59.014 10.78 60.136 8.272 60.136ZM30.972 67L27.43 61.94C29.52 61.126 30.708 59.41 30.708 57.078C30.708 53.668 28.2 51.6 24.152 51.6H17.816V67H20.676V62.512H24.152C24.35 62.512 24.548 62.512 24.746 62.49L27.892 67H30.972ZM27.826 57.078C27.826 59.014 26.528 60.158 24.02 60.158H20.676V54.02H24.02C26.528 54.02 27.826 55.142 27.826 57.078ZM41.1018 67.22C45.8758 67.22 49.3958 63.876 49.3958 59.3C49.3958 54.724 45.8758 51.38 41.1018 51.38C36.3278 51.38 32.8078 54.746 32.8078 59.3C32.8078 63.854 36.3278 67.22 41.1018 67.22ZM41.1018 64.712C37.9998 64.712 35.6898 62.446 35.6898 59.3C35.6898 56.154 37.9998 53.888 41.1018 53.888C44.2038 53.888 46.5138 56.154 46.5138 59.3C46.5138 62.446 44.2038 64.712 41.1018 64.712ZM54.5031 67.22C57.8911 67.22 59.6951 65.438 59.6951 61.808V51.6H51.3571V53.998H56.8351V61.962C56.8351 63.854 56.0211 64.8 54.4371 64.8C53.2271 64.8 52.2151 64.184 51.3791 63.04L49.7511 64.998C50.8071 66.428 52.5671 67.22 54.5031 67.22ZM66.5667 64.602V60.356H74.0027V58.002H66.5667V53.998H74.9487V51.6H63.7067V67H75.2567V64.602H66.5667ZM85.5085 67.22C88.0385 67.22 90.1945 66.318 91.6245 64.646L89.7765 62.886C88.6545 64.118 87.2685 64.712 85.6625 64.712C82.4725 64.712 80.1625 62.468 80.1625 59.3C80.1625 56.132 82.4725 53.888 85.6625 53.888C87.2685 53.888 88.6545 54.482 89.7765 55.692L91.6245 53.954C90.1945 52.282 88.0385 51.38 85.5305 51.38C80.8005 51.38 77.2805 54.702 77.2805 59.3C77.2805 63.898 80.8005 67.22 85.5085 67.22ZM97.317 67H100.177V54.02H105.281V51.6H92.213V54.02H97.317V67Z" fill="#FF2B59"/>
</svg>
