<svg width="16" height="16" viewBox="0 0 16 16" fill="none" xmlns="http://www.w3.org/2000/svg">
<path d="M14.9858 3.76195C14.4848 3.98395 13.9466 4.13395 13.3808 4.20175C13.9646 3.85243 14.4013 3.30263 14.6096 2.65495C14.0611 2.98075 13.4608 3.21007 12.8348 3.33295C12.4138 2.88347 11.8562 2.58555 11.2486 2.48544C10.6409 2.38533 10.0172 2.48863 9.47433 2.7793C8.93141 3.06998 8.49965 3.53177 8.24608 4.09298C7.9925 4.65418 7.9313 5.2834 8.07198 5.88295C6.96059 5.82715 5.87336 5.53828 4.88084 5.0351C3.88832 4.53191 3.01269 3.82565 2.31078 2.96215C2.07078 3.37615 1.93278 3.85615 1.93278 4.36735C1.93251 4.82755 2.04584 5.2807 2.26271 5.68659C2.47958 6.09249 2.79328 6.43858 3.17598 6.69415C2.73215 6.68003 2.29811 6.5601 1.90998 6.34435V6.38035C1.90994 7.0258 2.1332 7.65138 2.54189 8.15095C2.95058 8.65052 3.51953 8.99331 4.15218 9.12115C3.74045 9.23258 3.30879 9.249 2.88978 9.16915C3.06828 9.72452 3.41598 10.2102 3.8842 10.5581C4.35243 10.906 4.91773 11.0989 5.50098 11.1096C4.51088 11.8868 3.28812 12.3084 2.02938 12.3066C1.80641 12.3066 1.58363 12.2936 1.36218 12.2676C2.63987 13.0891 4.12719 13.525 5.64618 13.5234C10.7882 13.5234 13.5992 9.26455 13.5992 5.57095C13.5992 5.45095 13.5962 5.32975 13.5908 5.20975C14.1376 4.81434 14.6095 4.32469 14.9846 3.76375L14.9858 3.76195Z" fill="black"/>
</svg>
